<svg xmlns="http://www.w3.org/2000/svg" viewBox="0 0 298.78 72.83"><defs><style>.cls-1{fill:#f5f6f6;}.cls-2{fill:#fdfdfd;}.cls-3{fill:#f4f4f5;}.cls-4{fill:#f5f5f6;}.cls-5{fill:#01aae6;}.cls-6{fill:#21b7c4;}.cls-7{fill:#6bce67;}.cls-8{fill:#7ad356;}.cls-9{fill:#63cd72;}.cls-10{fill:#78d156;}.cls-11{fill:#19b3cc;}.cls-12{fill:#4cc38d;}.cls-13{fill:#45bc8f;}.cls-14{fill:#3cbd9e;}.cls-15{fill:#50c182;}.cls-16{fill:#2eb9b1;}.cls-17{fill:#61ca74;}.cls-18{fill:#3cbfa2;}.cls-19{fill:#23b6bf;}.cls-20{fill:#55c47f;}.cls-21{fill:#0baedc;}.cls-22{fill:#40c09c;}.cls-23{fill:#58c87e;}.cls-24{fill:#2bbcba;}.cls-25{fill:#35bdaa;}</style></defs><g id="Layer_2" data-name="Layer 2"><g id="Layer_1-2" data-name="Layer 1"><path class="cls-1" d="M217.82,56.49h-9.1c0-6.25.23-12.4-.15-18.51a6.29,6.29,0,0,0-3.23-4.59c-1.3-.51-3.87.59-5,1.78s-1.46,3.32-1.56,5.07c-.24,4-.13,8.1-.15,12.16,0,1.27,0,2.55,0,4h-9V27.13c3.22.28,7.09-2.19,8,3.28,7-5.38,13.31-5.25,19,.1,1.75-1.12,3.34-2.78,5.22-3.23,8.14-2,14.93-.15,15.07,9.65.08,6.39,0,12.78,0,19.42h-9c0-5.45,0-10.89,0-16.34,0-5-1.29-6.9-4.42-6.95-3.28-.05-5.48,2.19-5.69,6.66C217.61,45.18,217.82,50.66,217.82,56.49Z"/><path class="cls-2" d="M113,18.17h8.63V32.86h16.17V18.3h8.11V56.39h-8V40.24H121.69V56.49H113Z"/><path class="cls-3" d="M181.16,56.5c-3.32.07-6.74,1.33-7-3.94l-3.94,2.72a11.19,11.19,0,0,1-17-5.42c-1.2-3.61,2.11-9.1,6.78-10.31,3.76-1,7.73-1.14,11.65-1.67,1.09-5.73-1.87-6.64-12.34-3.46-.8-1.53-1.62-3.12-2.43-4.69,4.58-3.77,16-4.66,20.29-1A11.64,11.64,0,0,1,181,35.93C181.51,42.65,181.16,49.43,181.16,56.5ZM172,42.74c-2.72.49-5.31.49-7.37,1.53-1.17.59-2.11,2.94-2,4.38.1,1,2.28,2.28,3.61,2.38C170.46,51.35,172.26,48.8,172,42.74Z"/><path class="cls-1" d="M298.75,56.45c-3.22.07-6.68,1.57-6.94-2.37-3.76,1.07-7.34,2.68-11,3-5.24.46-8.61-2.69-9.32-7.56-.76-5.22,1.51-8.94,6.87-10.17,3.79-.87,7.75-1,11.66-1.43.91-5.81-3.07-6.95-13-3.36l-2.82-5.3c6.58-3.24,13.12-3.9,19.75-1.15,3.72,1.54,4.79,5.05,4.85,8.75C298.83,43.25,298.75,49.64,298.75,56.45Zm-8.58-13.51c-2.51.3-5.22.14-7.47,1.08-1.32.56-2.53,2.85-2.56,4.39,0,.89,2.34,2.5,3.74,2.63C288.74,51.48,290.7,48.94,290.17,42.94Z"/><path class="cls-4" d="M242.59,56.4c-1.42-4.66,1.68-7.19,3.88-10,3.23-4.12,6.63-8.12,10.62-13H243.36V27h23.27c.59,2.94.49,5-1.73,7.45-4.26,4.72-7.72,10.15-11.86,15.75h14.12V56.4Z"/><path class="cls-5" d="M63.88,62.08c5.45-3.07,11-6,16.3-9.28a19.43,19.43,0,0,0,5.09-4.9c1.87-2.49,4.16-4.69,7.14-3.7,2.72.89,5.76,2.74,7.21,5.06,2.21,3.52-2.31,9.89-7,9.11-6.5-1.06-10.48,3.18-15.4,5.3s-9.37,5.17-14,7.85c-2.84,1.63-5.56,2.06-8.07-.59a24,24,0,0,1,2.22-2.86C59.46,66,61.7,64.07,63.88,62.08ZM95,51.22c-1.42-1-2.33-2.16-3.11-2.08a3,3,0,0,0-2,2.17c0,.7,1.26,2,2,2S93.64,52.25,95,51.22Z"/><path class="cls-6" d="M58.38,44.77c3.71-1.78,7.46-3.51,11.12-5.38,4.15-2.11,8.18-4.44,12.34-6.51,2.29-1.15,3.85-2.54,3.47-5.31L93,23.65v6.27a14.08,14.08,0,0,0-3.67,1.17C83.19,35.24,77,39.43,71,43.77c-4.31,3.11-8.44,6.47-12.65,9.71l-5.56-3.06C54.65,48.54,56.52,46.66,58.38,44.77Z"/><path class="cls-7" d="M34,11.69C37.88,10,41.82,8.38,45.59,6.46s7.23-4.25,11-6.12c1.16-.58,2.79-.23,4.2-.3a9.5,9.5,0,0,1-1.68,2.41c-3.53,2.65-7.2,5.12-10.74,7.76-4.63,3.48-9.18,7.06-13.77,10.59l-5.4-2.92Q31.6,14.79,34,11.69Z"/><path class="cls-8" d="M11.75,27.78a42,42,0,0,1-5-.06C2.7,27.21.2,24.57,0,20.88a7.43,7.43,0,0,1,5.34-7.31c4.28-1.05,8,.47,9.62,4,.63,1.38,1.14,2.83,1.7,4.24ZM5.31,19.29l-.1,2.39,4.52.54.12-3.16Z"/><path class="cls-9" d="M34.57,20.8c4.59-3.53,9.14-7.11,13.77-10.59,3.54-2.64,7.21-5.11,10.74-7.76A9.5,9.5,0,0,0,60.76,0L67.07,3.2,60.72,8.75c-1.23.18-2.62,0-3.65.58-3.69,1.91-7.27,4-10.83,6.16-.61.37-.88,1.3-1.31,2L38.44,23Z"/><path class="cls-10" d="M34,11.69q-2.41,3.11-4.84,6.19c-1,.09-2.08.27-3.12.27-4.66,0-7.78-2.61-8.12-6.73-.32-3.9,2.15-7,6.17-7.75,4.34-.8,7.83,1.27,9.12,5.41C33.49,10,33.75,10.82,34,11.69ZM22.8,9.75l-.07,2,4.76.78.15-3.35Z"/><path class="cls-11" d="M58.35,53.48c4.21-3.24,8.34-6.6,12.65-9.71,6-4.34,12.19-8.53,18.37-12.68A14.08,14.08,0,0,1,93,29.92c1,4.18-.68,6.56-4.51,8.5-9.13,4.62-18,9.72-27,14.55A10.13,10.13,0,0,1,58.35,53.48Z"/><path class="cls-12" d="M50.46,20.6a16.42,16.42,0,0,0,3.83-1.79c4.31-3.6,8.23-2.66,12.07.7l-5.76,6c-1.31.43-2.9.53-3.88,1.35-4.32,3.64-8.2,2.91-12-.75Z"/><path class="cls-13" d="M37.35,41.89l-3.25-1.1c-.17,2-.31,3.79-.46,5.61l-7.79,3.14q0-3.52,0-7l12.18-9,6.29,3.2Z"/><path class="cls-14" d="M60.6,25.52l5.76-6a17.72,17.72,0,0,0,3.89.59c2.85-.2,5.36.14,7,2.77l-4.11,2.41c-3-.5-4.36.55-3.44,3.69l-3.6,1.94Z"/><path class="cls-15" d="M38,33.48l-12.18,9-1-7.69,5.93-5Z"/><path class="cls-16" d="M73.17,25.28l4.11-2.41c2.75,4.12,2.23,8-1.4,10.33-3.4,2.24-7,1.39-9.75-2.29L69.73,29l3.44,0Z"/><path class="cls-17" d="M30.8,29.81l-5.93,5-7.78-4,7.52-4.9Z"/><path class="cls-16" d="M58.38,44.77c-1.86,1.89-3.73,3.77-5.59,5.65l-8-4.7,6.68-4.9Z"/><path class="cls-18" d="M51.44,40.82l-6.68,4.9-7.41-3.84,6.95-5.2Z"/><path class="cls-18" d="M25.85,49.54l7.79-3.14L36,51.59l-6.79,5C25.33,55.56,25,52.84,25.85,49.54Z"/><path class="cls-19" d="M43.41,64.25l-7.19-3.63L41.82,55l7.4,3.78Z"/><path class="cls-20" d="M60.72,8.75,67.07,3.2,73.5,6.83l-5.62,5.66Z"/><path class="cls-7" d="M24.61,25.93l-7.52,4.9-5.34-3,4.92-6Z"/><path class="cls-16" d="M41.82,55l-5.6,5.65-7-4.06,6.79-5Z"/><path class="cls-21" d="M63.88,62.08c-2.18,2-4.42,3.94-6.54,6a24,24,0,0,0-2.22,2.86l-6.75-3.87,6.18-5.33C57.56,64.52,60.71,63.51,63.88,62.08Z"/><path class="cls-22" d="M79,10l6.32,3.15c-1.66,2-3.31,4-5,6L72.84,15.3Z"/><path class="cls-23" d="M50.46,20.6l-5.7,5.52L38.44,23l6.49-5.5Z"/><path class="cls-11" d="M54.55,61.73l-6.18,5.33-5-2.81,5.81-5.5Z"/><path class="cls-24" d="M93,23.65l-7.72,3.92-.15-5.46,5.65-5.81C95,17.74,92.66,21.09,93,23.65Z"/><path class="cls-12" d="M79,10,72.84,15.3l-5-2.81L73.5,6.83Z"/><path class="cls-25" d="M90.81,16.3l-5.65,5.81-4.79-2.95c1.65-2,3.3-4,5-6Z"/></g></g></svg>